<?xml version="1.0" standalone="no"?>
<!DOCTYPE svg PUBLIC "-//W3C//DTD SVG 20010904//EN"
 "http://www.w3.org/TR/2001/REC-SVG-20010904/DTD/svg10.dtd">
<svg version="1.0" xmlns="http://www.w3.org/2000/svg"
 width="128.000000pt" height="128.000000pt" viewBox="0 0 128.000000 128.000000"
 preserveAspectRatio="xMidYMid meet">
<metadata>
Created by potrace 1.14, written by Peter Selinger 2001-2017
</metadata>
<g transform="translate(0.000000,128.000000) scale(0.100000,-0.100000)"
fill="#000000" stroke="none">
<path d="M628 1271 c-3 -9 -88 -109 -123 -145 -36 -37 -175 -203 -175 -208 0
-3 18 -8 41 -11 22 -3 43 -8 46 -10 2 -3 -45 -77 -107 -164 l-111 -158 53 -13
c29 -8 54 -15 56 -17 2 -1 -40 -73 -92 -159 -53 -86 -96 -158 -96 -160 0 -13
305 -58 413 -60 l28 -1 -1 -70 c-1 -38 -1 -76 -1 -82 1 -9 24 -13 81 -13 76 0
80 1 81 23 0 12 1 49 2 81 l2 59 35 3 c116 8 183 15 189 18 3 2 29 6 56 10 28
3 74 12 103 19 l54 12 -97 159 c-53 87 -94 160 -92 163 3 2 15 6 28 8 57 11
72 15 76 18 2 2 -18 34 -44 70 -74 103 -126 178 -151 219 l-23 38 41 6 c51 8
55 15 27 46 -12 14 -47 54 -77 89 -78 90 -212 239 -216 239 -1 0 -4 -4 -6 -9z"/>
</g>
</svg>
